<?xml version="1.0" encoding="UTF-8"?>
<svg width="26px" height="26px" viewBox="0 0 26 26" version="1.1" xmlns="http://www.w3.org/2000/svg" xmlns:xlink="http://www.w3.org/1999/xlink">
    <!-- Generator: Sketch 42 (36781) - http://www.bohemiancoding.com/sketch -->
    <title>Combined Shape</title>
    <desc>Created with Sketch.</desc>
    <defs></defs>
    <g id="Page-1" stroke="none" stroke-width="1" fill="none" fill-rule="evenodd">
        <g id="Home" transform="translate(-1660.000000, -470.000000)" fill="#FFFFFF">
            <g id="Menu" transform="translate(1593.000000, 371.000000)">
                <g id="Group-5" transform="translate(67.000000, 0.000000)">
                    <path d="M10.7225059,106.99923 C9.77034672,107.131591 8.87743485,107.494638 8.10301764,108.063581 L4.00822886,103.970893 C5.88985679,102.346003 8.24546335,101.371994 10.7225059,101.187529 L10.7225059,106.99923 Z M20.3974686,120.357612 L16.2472143,116.206097 C16.8043913,115.449748 17.1623964,114.576165 17.3035815,113.642494 L23.1795719,113.642494 C22.9951068,116.123318 22.019837,118.475563 20.3974686,120.357612 Z M12.4566458,118.519264 C13.3903165,118.371355 14.2660004,118.003686 15.026131,117.436004 L19.1721835,121.582897 C17.2880344,123.206105 14.9357894,124.181375 12.4566458,124.365 L12.4566458,118.519264 Z M10.7225059,124.365 C8.24588354,124.181795 5.88985679,123.206105 4.00822886,121.582897 L8.11688404,117.474662 C8.8879397,118.038142 9.77622944,118.396987 10.7225059,118.529348 L10.7225059,124.365 Z M6.88445556,116.25652 L2.78084271,120.357191 C1.16099553,118.475563 0.182364118,116.120797 0,113.642074 L5.78985066,113.642074 C5.93271656,114.594233 6.30626886,115.485884 6.88445556,116.25652 Z M2.7812629,105.193237 L6.8752113,109.284244 C6.29534383,110.058661 5.92473288,110.954514 5.78480833,111.911296 L0.000420193821,111.911296 C0.182364118,109.431312 1.16141572,107.075705 2.7812629,105.193237 Z M18.2402409,103.736675 C18.0721633,103.610617 17.9040858,103.526578 17.9040858,103.40052 C17.6519695,103.148404 17.6939889,102.72821 17.9461052,102.476094 C18.1562021,102.223978 18.4083184,102.013881 18.6604347,101.761764 C19.0386091,101.38359 19.3327448,101.341571 19.8369774,101.677726 C20.34121,101.173493 20.8454426,100.66926 21.3496751,100.165028 C21.769869,99.744834 22.1480434,99.3246402 22.7363148,99.1145433 C23.2825667,98.9044464 23.8708381,98.9884851 24.3330513,99.3246402 C24.7532451,99.6607953 25.2574777,100.123008 25.3835358,101.047435 C25.4255552,101.257532 25.4255552,101.425609 25.3415164,101.635706 C25.0894002,102.434074 24.4591094,102.896288 23.9128575,103.44254 C23.534683,103.820714 23.1144892,104.198889 22.7363148,104.577063 C23.1565086,105.123315 23.0304504,105.375431 22.5682372,105.837644 C22.3581403,106.047741 22.1900628,106.215819 21.9799659,106.425916 C21.6017914,106.762071 21.1815976,106.80409 20.8454426,106.425916 C20.7614038,106.341877 20.7193844,106.257838 20.6353456,106.13178 C20.5092875,106.299858 20.4252487,106.341877 20.34121,106.425916 C18.4503378,108.274769 16.6435044,110.123621 14.7526322,111.930455 C14.290419,112.392668 13.744167,112.770842 13.0718569,112.896901 C12.7777212,112.93892 12.5256049,113.191036 12.2314692,113.401133 C11.8532948,113.653249 11.3910816,113.653249 11.0549265,113.317094 L11.0129072,113.275075 C10.6767521,112.93892 10.6347327,112.434687 10.9288684,112.056513 C10.9288684,112.014494 10.9708878,111.972474 11.0129072,111.930455 C11.1809847,111.636319 11.3910816,111.342183 11.4751204,111.006028 C11.6431979,110.417757 11.9793529,109.955544 12.3995468,109.53535 C14.2483996,107.686497 16.0972524,105.837644 17.9040858,104.030811 C17.9881246,103.946772 18.0721633,103.862733 18.2402409,103.736675 Z M18.6184153,104.282927 C16.6855237,106.215819 14.7106128,108.19073 12.7777212,110.20766 C12.4415661,110.543815 12.2314692,110.92199 12.1474305,111.384203 C12.1054111,111.636319 11.9793529,111.888435 11.8532948,112.098532 C11.7272366,112.22459 11.6431979,112.392668 11.5171397,112.518726 C11.433101,112.644784 11.433101,112.770842 11.5171397,112.854881 C11.6011785,112.93892 11.769256,112.93892 11.8532948,112.854881 C11.8532948,112.812862 11.8953142,112.770842 11.9373336,112.770842 C12.2734886,112.560746 12.6096437,112.308629 12.9878181,112.22459 C13.4920507,112.098532 13.9122445,111.846416 14.2483996,111.510261 C16.1812911,109.619389 18.0721633,107.728517 19.9630355,105.837644 C20.0050549,105.795625 20.0470743,105.711586 20.0470743,105.711586 C19.5428417,105.207354 19.0806285,104.74514 18.6184153,104.282927 Z" id="Combined-Shape"></path>
                </g>
            </g>
        </g>
    </g>
</svg>