<?xml version="1.0" encoding="UTF-8"?>
<svg width="12px" height="8px" viewBox="0 0 12 8" version="1.1" xmlns="http://www.w3.org/2000/svg" xmlns:xlink="http://www.w3.org/1999/xlink">
    <!-- Generator: Sketch 50.2 (55047) - http://www.bohemiancoding.com/sketch -->
    <title>Combined Shape</title>
    <desc>Created with Sketch.</desc>
    <defs></defs>
    <g id="Page-1" stroke="none" stroke-width="1" fill="none" fill-rule="evenodd">
        <g id="Pick-Color" transform="translate(-1706.000000, -517.000000)" fill="#FFFFFF">
            <path d="M1712.86533,524.106739 L1714.55185,522.369049 C1714.88393,522.026884 1715.41827,522.022671 1715.75045,522.364932 C1716.08033,522.704823 1716.08037,523.255853 1715.74646,523.599903 L1712.40094,526.837117 C1712.1807,527.050224 1711.82049,527.051379 1711.59906,526.837117 L1708.25354,523.599903 C1707.91963,523.255853 1707.91967,522.704823 1708.24955,522.364932 C1708.58173,522.022671 1709.11607,522.026884 1709.44815,522.369049 L1711.12463,524.096394 L1711.12463,515.559809 C1711.12463,515.249188 1711.38148,514.997381 1711.68498,514.997381 L1712.30498,514.997381 C1712.61445,514.997381 1712.86533,515.248954 1712.86533,515.559809 L1712.86533,524.106739 L1712.86533,524.106739 Z" id="Combined-Shape" transform="translate(1712.000000, 520.997381) rotate(-90.000000) translate(-1712.000000, -520.997381) "></path>
        </g>
    </g>
</svg>